<?xml version="1.0" encoding="UTF-8"?>
<svg version="1.1" xmlns="http://www.w3.org/2000/svg" width="32" height="32">
<path d="M0 0 C4.08357449 0.56600837 6.68800917 1.84888968 10.08203125 4.16015625 C11.01337891 4.78857422 11.94472656 5.41699219 12.90429688 6.06445312 C13.86400391 6.72380859 14.82371094 7.38316406 15.8125 8.0625 C16.79154297 8.72572266 17.77058594 9.38894531 18.77929688 10.07226562 C21.1912172 11.70766526 23.59778094 13.35039798 26 15 C24.60081984 18.40105614 23.17889389 19.84465247 20.04296875 21.7265625 C19.25986328 22.2009375 18.47675781 22.6753125 17.66992188 23.1640625 C16.44112305 23.88722656 16.44112305 23.88722656 15.1875 24.625 C14.37990234 25.11484375 13.57230469 25.6046875 12.74023438 26.109375 C8.92264451 28.39805295 5.22759925 30.54220715 1 32 C1 30.02 1 28.04 1 26 C0.401875 25.7525 -0.19625 25.505 -0.8125 25.25 C-3.51690582 23.70462524 -4.56742238 22.79352635 -6 20 C-6.5353383 16.89271031 -6.60673229 14.09985044 -6 11 C-3.625 7.9375 -3.625 7.9375 -1 6 C-0.34 6 0.32 6 1 6 C0.67 4.02 0.34 2.04 0 0 Z " fill="#1F78D0" transform="translate(6,0)"/>
<path d="M0 0 C4.08357449 0.56600837 6.68800917 1.84888968 10.08203125 4.16015625 C11.01337891 4.78857422 11.94472656 5.41699219 12.90429688 6.06445312 C14.34385742 7.05348633 14.34385742 7.05348633 15.8125 8.0625 C16.79154297 8.72572266 17.77058594 9.38894531 18.77929688 10.07226562 C21.1912172 11.70766526 23.59778094 13.35039798 26 15 C24.60081984 18.40105614 23.17889389 19.84465247 20.04296875 21.7265625 C19.25986328 22.2009375 18.47675781 22.6753125 17.66992188 23.1640625 C16.44112305 23.88722656 16.44112305 23.88722656 15.1875 24.625 C14.37990234 25.11484375 13.57230469 25.6046875 12.74023438 26.109375 C8.92264451 28.39805295 5.22759925 30.54220715 1 32 C1 30.02 1 28.04 1 26 C2.0725 25.731875 3.145 25.46375 4.25 25.1875 C7.60940478 24.12368849 9.34131588 23.16633521 12 21 C12.66 21 13.32 21 14 21 C14.02423563 15.35558019 14.02423563 15.35558019 11.80859375 10.32421875 C8.46601873 7.36564713 5.38996891 6.31356921 1 6 C0.67 4.02 0.34 2.04 0 0 Z " fill="#FBD105" transform="translate(6,0)"/>
<path d="M0 0 C3.33902089 0.67633452 5.41278035 2.18285969 7.86328125 4.5 C10.1379237 7.94326609 9.69405155 11.48054697 9.140625 15.43359375 C8.150625 15.10359375 7.160625 14.77359375 6.140625 14.43359375 C5.99625 13.79421875 5.851875 13.15484375 5.703125 12.49609375 C5.34499467 10.24149853 5.34499467 10.24149853 3.140625 9.24609375 C2.480625 8.97796875 1.820625 8.70984375 1.140625 8.43359375 C0.810625 8.10359375 0.480625 7.77359375 0.140625 7.43359375 C-1.71225002 7.36132873 -3.56771378 7.34978155 -5.421875 7.37109375 C-6.43378906 7.38011719 -7.44570312 7.38914062 -8.48828125 7.3984375 C-9.27074219 7.41003906 -10.05320312 7.42164063 -10.859375 7.43359375 C-8.85827176 1.58421506 -6.37172134 -0.20059123 0 0 Z " fill="#E6EBEC" transform="translate(10.859375,5.56640625)"/>
<path d="M0 0 C3.97127158 0.83338728 6.71217405 3.27812225 9.140625 6.44921875 C9.578125 9.32421875 9.578125 9.32421875 9.140625 11.44921875 C7.99436178 10.47055537 6.84862712 9.49127288 5.703125 8.51171875 C5.06503906 7.96644531 4.42695313 7.42117187 3.76953125 6.859375 C2.87071351 6.0812618 1.98125972 5.28985347 1.140625 4.44921875 C-0.54546466 4.37716364 -2.23438159 4.36535807 -3.921875 4.38671875 C-4.84097656 4.39574219 -5.76007812 4.40476562 -6.70703125 4.4140625 C-7.41730469 4.42566406 -8.12757812 4.43726563 -8.859375 4.44921875 C-8.859375 3.78921875 -8.859375 3.12921875 -8.859375 2.44921875 C-5.7094141 0.34924482 -3.75951973 -0.09050696 0 0 Z " fill="#327EC6" transform="translate(10.859375,5.55078125)"/>
<path d="M0 0 C1.8871875 0.0309375 1.8871875 0.0309375 3.8125 0.0625 C4.1425 0.7225 4.4725 1.3825 4.8125 2.0625 C2.8125 4.0625 2.8125 4.0625 0.2109375 4.2578125 C-0.78679688 4.23460937 -1.78453125 4.21140625 -2.8125 4.1875 C-4.31683594 4.16042969 -4.31683594 4.16042969 -5.8515625 4.1328125 C-6.62242188 4.10960937 -7.39328125 4.08640625 -8.1875 4.0625 C-7.8575 3.0725 -7.5275 2.0825 -7.1875 1.0625 C-4.43671116 0.14557039 -2.82801087 -0.04636083 0 0 Z " fill="#DAE6F7" transform="translate(8.1875,8.9375)"/>
</svg>
